nColumns=19
nRows=92
DataType=double
version=3
OpenSimVersion=4.1
endheader
time	ground_force_1_vx	ground_force_1_vy	ground_force_1_vz	ground_force_1_px	ground_force_1_py	ground_force_1_pz	ground_force_1_mx	ground_force_1_my	ground_force_1_mz	ground_force_2_vx	ground_force_2_vy	ground_force_2_vz	ground_force_2_px	ground_force_2_py	ground_force_2_pz	ground_force_2_mx	ground_force_2_my	ground_force_2_mz
0.05	0	0	0	-0.00259311	0	0.00157093	0	0	0	211.906	462.026	11.9478	0.601707	0	-0.656238	0	-21.0121	0
0.058333	0	0	0	-0.00259311	0	0.00157093	0	0	0	170.084	314.883	4.52045	0.573808	0	-0.655733	0	-13.2049	0
0.066667	0	0	0	-0.00259311	0	0.00157093	0	0	0	115.424	182.321	-0.125624	0.538607	0	-0.654779	0	-6.34828	0
0.075	0	0	0	-0.00259312	0	0.00157093	0	0	0	61.3074	91.3106	-0.25237	0.526173	0	-0.651021	0	-1.03537	0
0.083333	0	0	0	-0.00259312	0	0.00157093	0	0	0	23.6955	42.812	2.06071	0.608772	0	-0.640891	-0	2.47206	-0
0.091667	0	0	0	-0.00259312	0	0.00157092	0	0	0	6.10851	20.6627	3.31776	0.772678	0	-0.622711	-0	4.23816	-0
0.1	0	0	0	-0.00259313	0	0.00157092	0	0	0	0	0	0	-0.00259313	0	0.00157091	0	0	0
0.108333	0	0	0	-0.00259313	0	0.00157091	0	0	0	0	0	0	-0.00259314	0	0.00157091	0	0	0
0.116667	0	0	0	-0.00259314	0	0.0015709	0	0	0	0	0	0	-0.00259314	0	0.0015709	0	0	0
0.125	0	0	0	-0.00259315	0	0.00157089	0	0	0	0	0	0	-0.00259315	0	0.00157089	0	0	0
0.133333	0	0	0	-0.00259316	0	0.00157088	0	0	0	0	0	0	-0.00259316	0	0.00157088	0	0	0
0.141667	0	0	0	-0.00259317	0	0.00157087	0	0	0	0	0	0	-0.00259317	0	0.00157087	0	0	0
0.15	0	0	0	-0.00259318	0	0.00157086	0	0	0	0	0	0	-0.00259318	0	0.00157086	0	0	0
0.158333	0	0	0	-0.00259319	0	0.00157085	0	0	0	0	0	0	-0.00259319	0	0.00157085	0	0	0
0.166667	-3.07743	14.35	1.89276	1.04937	0	-0.598589	-0	3.5744	-0	0	0	0	-0.00259321	0	0.00157083	0	0	0
0.175	-7.00991	34.8258	-0.810314	1.10892	0	-0.602875	-0	5.54279	-0	0	0	0	-0.00259322	0	0.00157082	0	0	0
0.183333	-17.1395	96.2567	-6.44666	1.12607	0	-0.601515	-0	7.3291	-0	0	0	0	-0.00259324	0	0.0015708	0	0	0
0.191667	-38.0468	252.678	-12.9066	1.13749	0	-0.606564	-0	8.47209	-0	0	0	0	-0.00259325	0	0.00157078	0	0	0
0.2	-69.5633	525.959	-16.241	1.13741	0	-0.613153	-0	8.60721	-0	0	0	0	-0.00259327	0	0.00157077	0	0	0
0.208333	-99.6155	831.767	-12.0087	1.12832	0	-0.618694	-0	7.60624	-0	0	0	0	-0.00259329	0	0.00157075	0	0	0
0.216667	-124.003	1046.5	1.51604	1.11492	0	-0.622544	-0	5.66019	-0	0	0	0	-0.00259331	0	0.00157073	0	0	0
0.225	-163.058	1155.77	19.7383	1.09974	0	-0.624468	-0	3.24834	-0	0	0	0	-0.00259333	0	0.00157071	0	0	0
0.233333	-212.583	1235.11	33.5327	1.08109	0	-0.625032	-0	0.987098	-0	0	0	0	-0.00259335	0	0.00157068	0	0	0
0.241667	-231.229	1343.04	36.7935	1.05278	0	-0.625592	0	-0.577936	0	0	0	0	-0.00259337	0	0.00157066	0	0	0
0.25	-203.3	1487.56	31.196	1.01582	0	-0.626511	0	-1.13733	0	0	0	0	-0.0025934	0	0.00157064	0	0	0
0.258333	-154.937	1638.78	22.3772	0.97963	0	-0.626775	0	-0.674514	0	0	0	0	-0.00259342	0	0.00157061	0	0	0
0.266667	-111.508	1758.37	13.3662	0.948495	0	-0.625867	-0	0.57907	-0	0	0	0	-0.00259344	0	0.00157058	0	0	0
0.275	-74.7875	1831.53	3.93805	0.919208	0	-0.624544	-0	2.23897	-0	0	0	0	-0.00259347	0	0.00157056	0	0	0
0.283333	-36.6231	1866.06	-5.37583	0.888566	0	-0.623623	-0	3.87146	-0	0	0	0	-0.0025935	0	0.00157053	0	0	0
0.291667	2.25763	1869.61	-12.159	0.857398	0	-0.62303	-0	5.08929	-0	0	0	0	-0.00259353	0	0.0015705	0	0	0
0.3	39.0371	1841.15	-14.9779	0.826831	0	-0.622466	-0	5.62735	-0	0	0	0	-0.00259355	0	0.00157047	0	0	0
0.308333	80.0603	1777.67	-14.6376	0.794979	0	-0.622208	-0	5.38261	-0	0	0	0	-0.00259358	0	0.00157044	0	0	0
0.316667	132.949	1677.26	-12.014	0.759198	0	-0.622487	-0	4.41366	-0	0	0	0	-0.00259361	0	0.00157041	0	0	0
0.325	195.425	1543	-6.80684	0.720016	0	-0.623072	-0	2.91232	-0	0	0	0	-0.00259365	0	0.00157037	0	0	0
0.333333	250.913	1384.81	0.804397	0.681815	0	-0.623891	-0	1.15952	-0	0	0	0	-0.00259368	0	0.00157034	0	0	0
0.341667	282.623	1207.65	8.96021	0.64705	0	-0.624918	0	-0.531041	0	0	0	0	-0.00259371	0	0.00157031	0	0	0
0.35	288.379	1007.47	15.4184	0.613339	0	-0.625673	0	-1.8774	0	0	0	0	-0.00259375	0	0.00157027	0	0	0
0.358333	273.215	788.378	19.197	0.579148	0	-0.62572	0	-2.68622	0	0	0	0	-0.00259378	0	0.00157023	0	0	0
0.366667	239.215	570.31	20.5527	0.548006	0	-0.625144	0	-2.88434	0	0	0	0	-0.00259382	0	0.0015702	0	0	0
0.375	188.448	376.443	19.9473	0.524404	0	-0.623596	0	-2.51838	0	0	0	0	-0.00259385	0	0.00157016	0	0	0
0.383333	129.391	223.676	17.55	0.510811	0	-0.619881	0	-1.72964	0	0	0	0	-0.00259389	0	0.00157012	0	0	0
0.391667	75.009	118.636	13.7804	0.51128	0	-0.613891	0	-0.71465	0	0	0	0	-0.00259393	0	0.00157008	0	0	0
0.4	34.8587	56.1631	9.79684	0.527366	0	-0.606884	-0	0.321186	-0	0	0	0	-0.00259397	0	0.00157004	0	0	0
0.408333	11.8763	24.5225	6.84076	0.540638	0	-0.596495	-0	1.20887	-0	0	0	0	-0.00259401	0	0.00156999	0	0	0
0.416667	2.56968	11.8625	5.223	0.569572	0	-0.586956	-0	1.84818	-0	0	0	0	-0.00259405	0	0.00156995	0	0	0
0.425	0	0	0	-0.00259407	0	0.00156996	0	0	0	0	0	0	-0.00259409	0	0.00156991	0	0	0
0.433333	0	0	0	-0.00259411	0	0.00156992	0	0	0	0	0	0	-0.00259414	0	0.00156986	0	0	0
0.441667	0	0	0	-0.00259416	0	0.00156988	0	0	0	0	0	0	-0.00259418	0	0.00156982	0	0	0
0.45	0	0	0	-0.0025942	0	0.00156983	0	0	0	0	0	0	-0.00259422	0	0.00156977	0	0	0
0.458333	0	0	0	-0.00259424	0	0.00156979	0	0	0	0	0	0	-0.00259427	0	0.00156972	0	0	0
0.466667	0	0	0	-0.00259429	0	0.00156974	0	0	0	0	0	0	-0.00259432	0	0.00156968	0	0	0
0.475	0	0	0	-0.00259433	0	0.0015697	0	0	0	0	0	0	-0.00259436	0	0.00156963	0	0	0
0.483333	0	0	0	-0.00259438	0	0.00156965	0	0	0	0	0	0	-0.00259441	0	0.00156958	0	0	0
0.491667	0	0	0	-0.00259443	0	0.0015696	0	0	0	-4.17537	14.557	3.24192	1.01351	0	-0.628005	-0	0.806006	-0
0.5	0	0	0	-0.00259448	0	0.00156955	0	0	0	-9.93948	44.0835	3.80168	1.10537	0	-0.636321	-0	0.66112	-0
0.508333	0	0	0	-0.00259453	0	0.0015695	0	0	0	-24.5298	128.077	4.30459	1.13208	0	-0.642693	-0	0.840274	-0
0.516667	0	0	0	-0.00259458	0	0.00156945	0	0	0	-48.5277	315.394	4.45798	1.13646	0	-0.644039	-0	1.50204	-0
0.525	0	0	0	-0.00259463	0	0.0015694	0	0	0	-77.9641	619.858	3.10006	1.13157	0	-0.644448	-0	2.71835	-0
0.533333	0	0	0	-0.00259468	0	0.00156935	0	0	0	-110.241	943.708	-1.91172	1.12142	0	-0.644879	-0	4.4004	-0
0.541667	0	0	0	-0.00259473	0	0.0015693	0	0	0	-145.688	1133.76	-11.0081	1.10805	0	-0.644983	-0	6.26871	-0
0.55	0	0	0	-0.00259478	0	0.00156925	0	0	0	-186.295	1171.87	-19.5661	1.09256	0	-0.645088	-0	7.90821	-0
0.558333	0	0	0	-0.00259483	0	0.00156919	0	0	0	-228.682	1192.66	-19.5717	1.07377	0	-0.64597	-0	8.90902	-0
0.566667	0	0	0	-0.00259489	0	0.00156914	0	0	0	-250.872	1298.49	-7.81213	1.05017	0	-0.647322	-0	9.02642	-0
0.575	0	0	0	-0.00259494	0	0.00156908	0	0	0	-234.314	1471.21	8.93759	1.02138	0	-0.648526	-0	8.26012	-0
0.583333	0	0	0	-0.002595	0	0.00156903	0	0	0	-192.11	1637.5	21.1814	0.989708	0	-0.649816	-0	6.81016	-0
0.591667	0	0	0	-0.00259506	0	0.00156897	0	0	0	-143.115	1754.78	27.7201	0.958148	0	-0.651269	-0	4.96687	-0
0.6	0	0	0	-0.00259511	0	0.00156891	0	0	0	-99.002	1826.51	34.3093	0.929232	0	-0.652405	-0	3.02594	-0
0.608333	0	0	0	-0.00259517	0	0.00156885	0	0	0	-64.8718	1861.03	42.8839	0.903442	0	-0.65306	-0	1.25655	-0
0.616667	0	0	0	-0.00259523	0	0.0015688	0	0	0	-33.0239	1856.8	48.6311	0.877347	0	-0.653797	0	-0.115178	0
0.625	0	0	0	-0.00259529	0	0.00156874	0	0	0	3.5024	1818.41	47.9007	0.84807	0	-0.65491	0	-0.934757	0
0.633333	0	0	0	-0.00259535	0	0.00156868	0	0	0	41.6294	1755.88	42.7136	0.817202	0	-0.655787	0	-1.14296	0
0.641667	0	0	0	-0.00259541	0	0.00156862	0	0	0	77.6895	1668.81	35.7928	0.787437	0	-0.655737	0	-0.776912	0
0.65	0	0	0	-0.00259547	0	0.00156855	0	0	0	119.523	1549.96	26.122	0.756282	0	-0.65484	-0	0.039563	-0
0.658333	0	0	0	-0.00259553	0	0.00156849	0	0	0	176.378	1400.92	12.1433	0.718932	0	-0.6536	-0	1.10449	-0
0.666667	0	0	0	-0.00259559	0	0.00156843	0	0	0	233.39	1232.64	-3.4988	0.677728	0	-0.652323	-0	2.16155	-0
0.675	0	0	0	-0.00259565	0	0.00156837	0	0	0	263.058	1053.53	-15.2835	0.64093	0	-0.650977	-0	2.9579	-0
0.683333	0	0	0	-0.00259571	0	0.0015683	0	0	0	259.436	863.608	-20.2448	0.612069	0	-0.649337	-0	3.31965	-0
0.691667	0	0	0	-0.00259578	0	0.00156824	0	0	0	236.39	663.557	-20.1974	0.585563	0	-0.647509	-0	3.20132	-0
0.7	0	0	0	-0.00259584	0	0.00156818	0	0	0	202.077	464.894	-18.305	0.554127	0	-0.646162	-0	2.68329	-0
0.708333	0	0	0	-0.00259591	0	0.00156811	0	0	0	154.749	288.829	-15.1378	0.519105	0	-0.645429	-0	1.93159	-0
0.716667	0	0	0	-0.00259597	0	0.00156804	0	0	0	99.2521	156.801	-9.58602	0.498171	0	-0.643189	-0	1.14895	-0
0.725	0	0	0	-0.00259604	0	0.00156798	0	0	0	49.8751	76.701	-2.58909	0.541982	0	-0.636467	-0	0.527278	-0
0.733333	0	0	0	-0.0025961	0	0.00156791	0	0	0	18.4696	37.3305	2.45217	0.693972	0	-0.630756	-0	0.197256	-0
0.741667	0	0	0	-0.00259617	0	0.00156784	0	0	0	5.32431	18.8815	3.45851	0.782365	0	-0.639403	-0	0.186168	-0
0.75	0	0	0	-0.00259624	0	0.00156778	0	0	0	0	0	0	-0.00259631	0	0.00156759	0	0	0
0.758333	0	0	0	-0.00259631	0	0.00156771	0	0	0	0	0	0	-0.00259638	0	0.00156752	0	0	0
0.766667	0	0	0	-0.00259637	0	0.00156764	0	0	0	0	0	0	-0.00259645	0	0.00156745	0	0	0
0.775	0	0	0	-0.00259644	0	0.00156757	0	0	0	0	0	0	-0.00259652	0	0.00156737	0	0	0
0.783333	0	0	0	-0.00259651	0	0.0015675	0	0	0	0	0	0	-0.00259659	0	0.0015673	0	0	0
0.791667	0	0	0	-0.00259658	0	0.00156743	0	0	0	0	0	0	-0.00259666	0	0.00156723	0	0	0
0.8	0	0	0	-0.00259665	0	0.00156736	0	0	0	0	0	0	-0.00259674	0	0.00156715	0	0	0
0.808333	0	0	0	-0.00259672	0	0.00156729	0	0	0	0	0	0	-0.00259681	0	0.00156708	0	0	0
